<?xml version="1.0" encoding="UTF-8"?><svg id="Layer_1" xmlns="http://www.w3.org/2000/svg" viewBox="0 0 290.42 213.69"><defs><style>.cls-1{fill:#f8b231;}.cls-2{fill:#ec6d6a;}.cls-3{fill:#fff;}.cls-4{fill:#9369a0;}</style></defs><path class="cls-1" d="M169.02,198.16c-.97-.34-2.05-.43-3.13-.21-26.67,5.55-53.63,0-75.93-15.61-21.37-14.96-35.63-37.35-40.16-63.04-3.32-18.84-1.11-37.8,6.2-55h-12.67c-6.72,18.03-8.55,37.6-5.12,57.05,5.08,28.79,21.06,53.88,45,70.64,18.49,12.95,40.59,19.77,62.91,19.77,7.4,0,14.83-.75,22.16-2.27,.25-.05,.49-.13,.73-.21v-11.11Z"/><polygon class="cls-3" points="226.28 211.75 171.55 211.75 171.55 181.56 198.83 161.45 226.61 182.22 226.28 211.75"/><path class="cls-2" d="M98.08,184.56c-46.47-20.69-69.14-73.03-53.86-120.27h-10.55c-14.9,51.25,10.1,107.13,60.31,129.49,13.99,6.23,29.08,9.35,44.18,9.35,11.08,0,22.16-1.69,32.82-5.06v-10.62c-23.87,8.48-49.54,7.51-72.89-2.89Z"/><path class="cls-3" d="M70.46,25.47c-9.34-3.68-19.42-2.32-27.25,2.76-2.26-9.05-8.7-16.92-18.05-20.6-2.15-.85-4.34-1.43-6.53-1.76L5.22,41.47c-1.24,3.62,2,5.41,4.15,6.26,9.1,3.59,15.45,11.15,17.87,19.9l-.43,1.08c.2-.14,.4-.26,.61-.39,.06,.23,.13,.46,.18,.7l.43-1.08c7.74-4.76,17.54-5.96,26.64-2.37,2.15,.85,5.66,1.07,7.19-1.6l14.58-35.33c-1.83-1.25-3.83-2.32-5.98-3.17Z"/><g><path class="cls-1" d="M287.32,141.11h-3.73c.16-.97,.95-1.61,1.87-1.61s1.71,.63,1.87,1.61m.72,.97c.43,0,.74-.33,.7-.72-.18-1.82-1.51-3.06-3.29-3.06-1.92,0-3.31,1.44-3.31,3.44s1.42,3.44,3.36,3.44c1.12,0,1.95-.37,2.56-.99,.25-.24,.29-.62,.07-.88-.12-.15-.3-.22-.49-.22-.14,0-.28,.05-.39,.16-.51,.49-1.04,.7-1.75,.7-1.04,0-1.84-.76-1.92-1.87h4.46Zm-8.36,2.33c0,.41,.3,.71,.71,.71,.43,0,.74-.3,.74-.71v-7.97c0-.41-.3-.71-.71-.71-.43,0-.74,.3-.74,.71v7.97Zm-6.67-2.67c0-1.21,.89-2.13,2.1-2.13s2.1,.92,2.1,2.13-.89,2.13-2.1,2.13-2.1-.92-2.1-2.13h0Zm0-2.67c0-.41-.3-.71-.72-.71s-.72,.3-.72,.71v8.15c0,.41,.3,.71,.72,.71s.72-.3,.72-.71v-3.09c.58,.66,1.42,1.05,2.41,1.05,1.89,0,3.25-1.44,3.25-3.44s-1.35-3.45-3.25-3.45c-.99,0-1.83,.39-2.41,1.05v-.28Zm-3.9,2.67c0,1.18-.87,2.11-2.08,2.11s-2.08-.92-2.08-2.11,.87-2.1,2.08-2.1,2.08,.92,2.08,2.1m-5.6,0c0,1.99,1.52,3.44,3.52,3.44s3.52-1.46,3.52-3.44-1.52-3.44-3.52-3.44-3.52,1.46-3.52,3.44m-2.14-.63h-3.74c.16-.97,.95-1.61,1.87-1.61s1.71,.63,1.87,1.61m.72,.97c.43,0,.74-.33,.7-.72-.18-1.82-1.51-3.06-3.29-3.06-1.92,0-3.31,1.44-3.31,3.44s1.42,3.44,3.36,3.44c1.12,0,1.95-.37,2.57-.99,.25-.24,.29-.62,.07-.88-.12-.15-.3-.22-.49-.22-.15,0-.28,.05-.4,.16-.51,.49-1.04,.7-1.75,.7-1.04,0-1.84-.76-1.92-1.87h4.46Zm-12.27-.34c0-1.21,.89-2.13,2.1-2.13s2.1,.92,2.1,2.13-.9,2.13-2.1,2.13-2.1-.92-2.1-2.13h0Zm0-2.67c0-.41-.3-.71-.72-.71s-.72,.3-.72,.71v8.15c0,.41,.3,.71,.72,.71s.72-.3,.72-.71v-3.09c.58,.66,1.42,1.05,2.41,1.05,1.89,0,3.25-1.44,3.25-3.44s-1.35-3.45-3.25-3.45c-.99,0-1.83,.39-2.41,1.05v-.28Zm-6.77,2.62c0,1.21-.89,2.11-2.1,2.11s-2.1-.89-2.1-2.11,.89-2.1,2.1-2.1,2.1,.89,2.1,2.1m1.45-2.52c0-.41-.3-.71-.71-.71s-.74,.3-.74,.71v.18c-.58-.65-1.41-1.05-2.41-1.05-1.89,0-3.25,1.47-3.25,3.39s1.35,3.39,3.25,3.39c1,0,1.83-.41,2.41-1.05v.79c0,1.38-1.05,1.89-2.07,1.89-.78,0-1.57-.29-2.17-.84-.11-.1-.25-.14-.39-.14-.2,0-.39,.08-.53,.22-.22,.26-.2,.67,.07,.91,.83,.76,1.93,1.14,3.02,1.14,1.76,0,3.51-1.01,3.51-3.23v-5.6Zm-8.05,5.25v-3.16c0-1.93-1.13-2.96-2.62-2.96-.87,0-1.71,.38-2.09,1.06v-.29c0-.41-.3-.71-.72-.71s-.72,.3-.72,.71v5.34c0,.41,.3,.71,.72,.71s.72-.3,.72-.71v-2.92c0-1.17,.72-1.83,1.71-1.83,.92,0,1.55,.58,1.55,1.64v3.1c0,.41,.3,.71,.72,.71s.72-.3,.72-.71Zm-13.62-5.34v3.16c0,1.93,1.13,2.96,2.62,2.96,.87,0,1.71-.38,2.09-1.07v.29c0,.41,.3,.71,.72,.71s.72-.3,.72-.71v-5.34c0-.41-.3-.71-.72-.71s-.72,.3-.72,.71v2.92c0,1.17-.72,1.83-1.71,1.83-.92,0-1.55-.58-1.55-1.64v-3.1c0-.41-.3-.71-.72-.71s-.72,.3-.72,.71m-2.39,2.67c0,1.18-.87,2.11-2.08,2.11s-2.08-.92-2.08-2.11,.87-2.1,2.08-2.1,2.08,.92,2.08,2.1m-5.6,0c0,1.99,1.52,3.44,3.52,3.44s3.52-1.46,3.52-3.44-1.52-3.44-3.52-3.44-3.52,1.46-3.52,3.44m-.41-2.42c.14-.37-.04-.76-.41-.91-.09-.04-.2-.05-.29-.05-.28,0-.53,.17-.63,.46l-1.63,4.55-1.7-4.55c-.1-.29-.37-.46-.64-.46-.09,0-.17,.01-.26,.05-.39,.16-.57,.56-.42,.93l2.27,5.63-.74,1.91c-.14,.37,.04,.76,.41,.91,.09,.04,.2,.05,.29,.05,.29,0,.54-.17,.64-.45l3.1-8.07Zm-12.86,5.09c0,.41,.3,.71,.71,.71s.74-.3,.74-.71v-2.94c0-1.1,.8-1.8,1.7-1.8,.03,0,.26,0,.38,.02,.37,.07,.72-.18,.79-.55,.11-.63-.49-.84-.99-.84-1.01,0-1.66,.59-1.87,1.17v-.39c0-.41-.32-.71-.72-.71s-.73,.3-.73,.71v5.34Zm-2.46-2.67c0,1.18-.87,2.11-2.08,2.11s-2.08-.92-2.08-2.11,.87-2.1,2.08-2.1,2.08,.92,2.08,2.1m-5.6,0c0,1.99,1.52,3.44,3.52,3.44s3.52-1.46,3.52-3.44-1.52-3.44-3.52-3.44-3.52,1.46-3.52,3.44m-4.81-3.29c-.38,0-.66,.28-.66,.66s.28,.68,.66,.68h.7v4.52c0,.41,.3,.71,.71,.71s.74-.3,.74-.71v-4.52h1.66c.38,0,.66-.28,.66-.66s-.28-.68-.66-.68h-1.66v-.53c0-.96,.45-1.34,1.26-1.34,.22,0,.47,.04,.67,.09,.33,.1,.67-.07,.78-.39,.12-.33-.07-.68-.4-.79-.47-.16-.89-.22-1.31-.22-1.58,0-2.45,1-2.45,2.58v.6h-.7Z"/><path class="cls-2" d="M182.99,145.73c-.08,.3,.07,.61,.37,.71,.08,.03,.16,.04,.22,.04,.22,0,.42-.12,.51-.33l.79-1.7c.2-.42,.03-.85-.42-1.01-.11-.04-.21-.05-.32-.05-.32,0-.58,.2-.67,.55l-.49,1.79Zm-2.54-1.32c0,.41,.3,.71,.71,.71,.43,0,.74-.3,.74-.71v-7.97c0-.41-.3-.71-.71-.71-.43,0-.74,.3-.74,.71v7.97Zm-2.46-2.67c0,1.18-.87,2.11-2.08,2.11s-2.08-.92-2.08-2.11,.87-2.1,2.08-2.1,2.08,.92,2.08,2.1m-5.6,0c0,1.99,1.52,3.44,3.52,3.44s3.52-1.46,3.52-3.44-1.52-3.44-3.52-3.44-3.52,1.46-3.52,3.44m-2.16,0c0,1.18-.87,2.11-2.08,2.11s-2.08-.92-2.08-2.11,.87-2.1,2.08-2.1,2.08,.92,2.08,2.1m-5.6,0c0,1.99,1.52,3.44,3.52,3.44s3.52-1.46,3.52-3.44-1.52-3.44-3.52-3.44-3.52,1.46-3.52,3.44m-5.66-.25c0-1.17,.72-1.83,1.71-1.83,.92,0,1.55,.58,1.55,1.64v3.1c0,.41,.3,.71,.74,.71,.41,0,.71-.3,.71-.71v-3.16c0-1.93-1.13-2.96-2.62-2.96-.87,0-1.71,.38-2.09,1.06v-2.92c0-.41-.3-.71-.74-.71-.41,0-.71,.3-.71,.71v7.97c0,.41,.3,.71,.74,.71,.41,0,.71-.3,.71-.71v-2.92Zm-5.26,3.69c1.12,0,2.09-.47,2.7-1.18,.25-.3,.22-.78-.07-1.01-.13-.1-.29-.16-.45-.16-.2,0-.39,.08-.54,.25-.35,.45-.95,.76-1.64,.76-1.2,0-2.08-.87-2.08-2.11s.88-2.1,2.08-2.1c.7,0,1.29,.31,1.64,.76,.15,.17,.34,.25,.54,.25,.16,0,.32-.05,.45-.16,.29-.24,.32-.71,.07-1.01-.6-.71-1.58-1.18-2.7-1.18-2.04,0-3.52,1.44-3.52,3.44s1.49,3.44,3.52,3.44m-6.72-1.15c-.51,0-1.04-.16-1.5-.49-.1-.08-.24-.13-.37-.13-.18,0-.37,.09-.49,.25-.21,.29-.13,.71,.18,.89,.62,.38,1.39,.63,2.17,.63,1.25,0,2.55-.59,2.55-2.06,0-2.71-3.58-1.49-3.58-2.83,0-.55,.55-.84,1.04-.84,.43,0,.88,.14,1.25,.37,.09,.05,.21,.09,.32,.09,.2,0,.39-.1,.5-.3,.17-.29,.06-.67-.22-.83-.58-.33-1.17-.49-1.84-.49-1.2,0-2.48,.6-2.48,2.05,0,2.71,3.58,1.49,3.58,2.83,0,.59-.58,.86-1.11,.86m-7.47-2.29c0,1.21-.89,2.13-2.1,2.13s-2.1-.92-2.1-2.13,.9-2.13,2.1-2.13,2.1,.92,2.1,2.13h0Zm0,2.67c0,.41,.3,.71,.72,.71s.72-.3,.72-.71v-7.97c0-.41-.3-.71-.72-.71s-.72,.3-.72,.71v2.91c-.58-.66-1.42-1.05-2.41-1.05-1.89,0-3.25,1.44-3.25,3.44s1.35,3.44,3.25,3.44c.99,0,1.83-.39,2.41-1.05v.27Zm-6.6,0v-3.16c0-1.93-1.13-2.96-2.62-2.96-.87,0-1.71,.38-2.09,1.06v-.29c0-.41-.3-.71-.72-.71s-.72,.3-.72,.71v5.34c0,.41,.3,.71,.72,.71s.72-.3,.72-.71v-2.92c0-1.17,.72-1.83,1.71-1.83,.92,0,1.55,.58,1.55,1.64v3.1c0,.41,.3,.71,.72,.71s.72-.3,.72-.71h0Zm-8.91-2.67c0,1.21-.9,2.13-2.11,2.13s-2.1-.92-2.1-2.13,.89-2.13,2.1-2.13,2.11,.92,2.11,2.13h0Zm0,2.67c0,.41,.3,.71,.72,.71s.72-.3,.72-.71v-5.34c0-.41-.3-.71-.72-.71s-.72,.3-.72,.71v.28c-.58-.66-1.42-1.05-2.41-1.05-1.89,0-3.25,1.44-3.25,3.44s1.35,3.44,3.25,3.44c.99,0,1.83-.39,2.41-1.05v.27Zm-10.43-3.3h-3.74c.16-.97,.95-1.61,1.87-1.61s1.71,.63,1.87,1.61m.72,.97c.43,0,.74-.33,.7-.72-.18-1.82-1.51-3.06-3.29-3.06-1.92,0-3.31,1.44-3.31,3.44s1.42,3.44,3.36,3.44c1.12,0,1.95-.37,2.56-.99,.25-.24,.29-.62,.07-.88-.12-.15-.3-.22-.49-.22-.14,0-.28,.05-.39,.16-.51,.49-1.04,.7-1.75,.7-1.04,0-1.84-.76-1.92-1.87h4.46Zm-12.66,2.33c0,.41,.3,.71,.71,.71,.43,0,.74-.3,.74-.71v-2.92c0-1.17,.63-1.83,1.54-1.83,.83,0,1.38,.58,1.38,1.64v3.1c0,.41,.3,.71,.71,.71,.43,0,.74-.3,.74-.71v-3.16c0-2.12-1.29-2.96-2.56-2.96-.93,0-1.83,.41-2.24,1.13-.43-.75-1.14-1.13-2-1.13s-1.57,.36-1.93,1.01v-.24c0-.41-.3-.71-.71-.71-.43,0-.74,.3-.74,.71v5.34c0,.41,.3,.71,.71,.71h.03c.41,0,.71-.3,.71-.71v-2.92c0-1.17,.63-1.83,1.54-1.83,.83,0,1.38,.58,1.38,1.64v3.1Zm-6.83-2.67c0,1.18-.87,2.11-2.08,2.11s-2.08-.92-2.08-2.11,.87-2.1,2.08-2.1,2.08,.92,2.08,2.1m-5.6,0c0,1.99,1.52,3.44,3.52,3.44s3.52-1.46,3.52-3.44-1.52-3.44-3.52-3.44-3.52,1.46-3.52,3.44m-8.73,2.63c0,.43,.31,.75,.75,.75s.78-.32,.78-.75v-3.34h4.47v3.34c0,.43,.32,.75,.75,.75s.78-.32,.78-.75v-7.89c0-.43-.32-.75-.75-.75s-.78,.31-.78,.75v3.17h-4.47v-3.17c0-.43-.31-.75-.75-.75s-.77,.31-.77,.75v7.89Z"/><g><path class="cls-4" d="M126.12,83c.05-5.35-.4-10.45-2.76-15.33-.78-1.61-1.71-3.15-2.78-4.59-1.11-1.49-2.46-2.92-4.09-4.11-1.62-1.16-3.52-2.06-5.45-2.59-5.86-1.59-11.88,.33-16.79,3.61-3.24,2.16-5.89,5.15-8.15,8.3-3.31,4.5-5.97,9.76-6.89,15.31-.14,.86-.19,1.83-.07,2.69,.25,1.82,1.4,.05,1.9-.69,.83-1.23,1.61-2.5,2.42-3.74,2.17-3.35,4.64-6.41,7.36-9.33,2.84-3.05,6.3-5.5,10-7.38,2.08-1.06,4.34-1.67,6.69-1.48,2.23,.18,4.28,1.32,5.8,2.91,2.64,2.76,4.28,6.73,4.77,10.48,.37,2.82,.29,5.79,.05,8.61-.41,5.84-1.82,11.55-4.28,16.71-1.24,2.58-2.79,4.97-4.54,7.22-1.84,2.19-3.72,4.38-5.93,6.2-3.33,2.75-8.76,5.07-12.87,2.45-1.91-1.22-2.86-3.4-3.4-5.52-.67-2.61-.9-5.33-.78-8.02,.07-1.37,.23-2.75,.49-4.12,.8-4.21,2.45-8.25,4.52-11.99,1.05-1.9,2.24-3.73,3.51-5.5,.65-.9,1.32-1.79,2.01-2.65,.47-.59,1.11-1.07,1.47-1.75,.36-.69,.22-1.59,.11-2.33-.19-1.21-.72-2.42-1.85-3.03-.88-.48-2.02-.6-2.99-.38-1.21,.28-1.81,1.24-2.56,2.15-1.98,2.44-3.8,5.01-5.43,7.69-.39,.65-.78,1.31-1.15,1.97-2.92,5.21-5.11,11.17-5.79,17.14-.08,.69-.14,1.38-.18,2.08-.29,5.22,.43,11,3.01,15.63,2.13,3.82,5.63,6.45,9.96,7.21,3.81,.69,7.86,.2,11.38-1.43,1.73-.8,3.29-1.79,4.7-2.88,1.41-1.09,2.68-2.26,3.86-3.46,3.46-3.52,6.74-7.61,8.91-12.07,3.15-5.97,4.86-12.55,5.52-19.11,.17-1.64,.26-3.29,.3-4.93Z"/><path class="cls-4" d="M230.63,59.39c-6.65,2.36-14.25,3.51-21.26,3.96-4.83,.31-9.75-.28-14.64-1.29-3.52-.73-7.02-1.72-10.54-2.8,.03-.06,.06-.12,.09-.18,.49-.99,.96-1.99,1.42-3,.42-.91,.99-1.8,1.24-2.77,.36-1.41-.38-4.38-2.04-4.77-1.26-.27-3.1,.17-3.94,1.18-1.41,1.7-2.59,3.67-3.71,5.56-.28,.48-.54,.97-.81,1.45-3.72-1.24-7.46-2.51-11.27-3.7-5.17-1.67-10.85-2.66-16.61-2.13-3.7,.38-8.13,1.33-11.17,3.64-1.32,1-2.2,2.49-1.2,3.78,.73,.94,3.12,2.93,4.38,2.57,.11-.03,.21-.07,.31-.13,1.05-.57,2.07-1.12,3.2-1.52,9.75-3.49,19.87,0,29.28,3.28-1.5,2.97-2.92,5.98-4.23,9.04-1.49,3.5-2.85,7.07-4.1,10.68-1.24,3.62-2.36,7.29-3.28,11.05-1.03,4.2-1.8,8.47-2.13,12.79-.24,3.18-.25,6.39,.12,9.56,.3,2.55,.69,5.13,1.84,7.45,1.28,2.58,3.6,4.84,6.61,5.05,1.62,.13,3.03-.31,4.16-.84,1.15-.54,2.09-1.2,2.93-1.89,1.89-1.55,3.51-3.4,5.01-5.32,1.53-1.96,3.03-3.97,4.32-6.09,1.82-2.98,3.49-6.05,5.1-9.15,.02,.03,.03,.05,.04,.08,.21,.38,.46,.74,.74,1.1,1.24,1.52,3.27,2.54,5.24,2.47,2.99-.11,5.42-1.96,7.39-4.05-.1,1.65,.03,3.28,.44,4.92,.3,1.2,.6,2.38,1.13,3.51,.34,.72,.87,1.9,1.78,2.01,.56,.07,1-.73,1.14-2.72,.16-2.16,.48-4.3,.8-6.44,.31-2.09,.54-4.2,1.01-6.26,.19-.82,.4-1.63,.63-2.44,.68-2.38,1.62-4.72,2.42-6.43,.27-.58,.55-1.14,.84-1.71,.17-.32,.51-.66,.56-1.02,.06-.42-.27-.7-.54-1.01-.54-.61-1.19-1.14-1.92-1.51-.5-.24-1.88-.78-2.33-.23-.68,.82-1.14,2.15-1.58,3.11-.88,1.87-1.88,4.39-2.65,7.01-1.05,1.2-2.09,2.36-3.05,3.32-1.43,1.52-3.14,3.06-4.98,4.05-.46,.25-1.07,.48-1.59,.27-.74-.29-.8-.98-.68-1.66,.17-.92,.42-1.82,.69-2.71,.32-1.04,.68-2.09,1.07-3.14,.57-1.54,1.17-3.08,1.8-4.6,.31-.75,.62-1.5,.94-2.24,.21-.5,.56-.98,.62-1.53,.06-.53-.22-1.09-.45-1.55-.39-.74-1-1.37-1.85-1.53-.7-.12-1.51,.04-2.12,.41-.78,.47-.98,1.38-1.32,2.17-.99,2.31-1.92,4.63-2.79,6.99-.37,1.01-.72,2.04-1.05,3.1-2.28,3.69-4.64,7.32-7.13,10.88-2.05,2.92-4.06,5.87-6.33,8.62-1,1.21-2.03,2.39-3.16,3.47-1.07,1.02-2.23,1.94-3.27,2.4-1.16,.54-2.02,.3-2.67-.82-.82-1.4-1.1-3.03-1.22-4.63-.15-1.96-.13-3.89-.1-5.85,.15-3.1,.62-6.24,1.26-9.36,.64-3.12,1.51-6.23,2.48-9.31,.98-3.08,2.07-6.14,3.3-9.16,1.22-3.02,2.53-6.01,3.89-8.99,1.34-2.91,2.72-5.81,4.12-8.7,3.96,1.25,7.99,2.41,12.16,3.28,5.16,1.06,10.42,1.7,15.7,1.44,5.15-.26,10.11-1.65,14.94-3.4,4.25-1.55,8.7-3.51,11.89-6.85,.96-1.01,1.46-1.9,1.47-2.41-.15-.89-1.49,.29-6.8,2.18Zm-36.16,42.64s0,0,0,0h0Z"/><path class="cls-4" d="M157.06,81.69c-.67-1.05-1.87-2-3.2-2.41-1.33-.42-2.65-.4-3.85-.18-.29,.06-.64,.14-.95,.26-.25,.09-.49,.18-.74,.27-.5,.16-.93,.41-1.38,.61-1.72,.88-2.96,1.84-3.85,2.52-2.05,1.71-3.77,3.7-5.41,5.79-1.01,1.3-1.97,2.62-2.89,3.95,.46-1.76,.93-3.52,1.39-5.29,.23-.87,.46-1.73,.68-2.6,.14-.54,.38-1.07,.46-1.63,.08-.6-.16-1.04-.48-1.53-.64-.97-1.47-1.81-2.72-1.71-.84,.07-1.68,.42-2.36,.91-.5,.36-.67,.89-.79,1.46-.21,.99-.48,1.98-.74,2.96-.76,2.89-1.51,5.79-2.27,8.68-.67,2.58-1.34,5.15-2.02,7.72-.46,1.75-.7,3.55-.93,5.34-.21,1.62-.48,3.36,.23,4.91,.84,1.81,3.66,1.17,5.01,.53,.22-.11,.25-.15,.32-.29,1.55-3.04,3.21-6.04,4.95-8.97,2.2-3.68,4.53-7.27,7.11-10.57,.98-1.25,2-2.45,3.05-3.57,0,0,.64-.8,1.67-1.86,.51-.52,1.12-1.11,1.79-1.64,1.04-.88,2.69-2.02,4.12-1.5,.96,.35,1.45,1.34,1.79,2.24,.43,1.12,.7,2.28,.95,3.45,.25,1.18,.46,2.06,.75,2.38,.28,.32,.63,.08,1.02-.98,.19-.53,.39-1.28,.52-2.28,.12-1.01,.21-2.27-.06-3.9-.16-.96-.46-2.04-1.17-3.09Z"/></g></g><g><rect class="cls-4" x="193.88" y="195.66" width="9.9" height="16.09"/><path class="cls-4" d="M228.65,178.13l-27.67-20.02c-1.49-1.07-3.49-1.06-4.97,.03l-26.61,19.7c-18.95,8.28-40.13,10.32-61.21,5.65-51.73-11.47-85.03-61.74-76.07-113.43,6.55-3.25,14.21-3.63,21.12-.91,3.96,1.56,9.38,1.2,11.94-3.27l15.99-38.64-2.57-1.76c-2.09-1.44-4.36-2.64-6.74-3.58-8.63-3.4-18.17-3.06-26.45,.75-3.46-8.43-10.21-15.19-18.84-18.59-2.38-.94-4.86-1.61-7.37-1.98l-3.07-.46L1.62,40.12l-.04,.11c-.61,1.77-1.94,7.81,6.38,11.08,7.29,2.87,12.84,8.85,15.23,16.23-4.92,26.92,.41,54.28,15.19,77.48,15.53,24.37,39.61,41.24,67.82,47.49,8.12,1.8,16.25,2.69,24.29,2.69,12.64,0,25.05-2.22,36.78-6.54v23.08h8.41v-28.09l22.87-16.93,23.44,16.96v28.06h8.41v-30.21c0-1.35-.65-2.62-1.74-3.41ZM47.29,30.28c6.69-3.55,14.63-4.04,21.76-1.23,.88,.35,1.74,.74,2.57,1.18l-13.17,31.91c-.31,.24-1.44,.23-2.38-.14-6.72-2.65-13.98-3.02-20.77-1.26l12-30.45ZM10.78,44.16c-1.62-.64-1.99-1.19-1.99-1.15,0-.02,0-.1,.05-.25L21.06,10.31c.91,.25,1.81,.55,2.69,.9,7.32,2.89,12.89,8.9,15.26,16.33l-11.93,30.27c-3.78-6.11-9.44-10.95-16.32-13.65Z"/></g></svg>